<?xml version="1.0" encoding="iso-8859-1"?>
<!-- Generator: Adobe Illustrator 16.0.0, SVG Export Plug-In . SVG Version: 6.00 Build 0)  -->
<!DOCTYPE svg PUBLIC "-//W3C//DTD SVG 1.1//EN" "http://www.w3.org/Graphics/SVG/1.1/DTD/svg11.dtd">
<svg version="1.1" id="Capa_1" xmlns="http://www.w3.org/2000/svg" xmlns:xlink="http://www.w3.org/1999/xlink" x="0px" y="0px"
	 width="476.601px" height="476.601px" viewBox="0 0 476.601 476.601" style="enable-background:new 0 0 476.601 476.601;"
	 xml:space="preserve">
<g>
	<g>
		<path d="M438.526,73.393c-8.524,0-16.047,4.134-20.866,10.428c-1.014-0.585-2.021-1.1-2.997-1.525
			c-0.162-10.74-8.924-19.439-19.706-19.439c-7.938,0-14.898,4.888-17.974,11.924c-19.887-1.79-43.675-1.774-63.492,0.048
			c-3.051-7.063-10.031-11.972-17.996-11.972c-10.86,0-19.695,8.827-19.727,19.675c-1.285,0.585-2.646,1.312-3.932,2.21
			c-4.772-6.843-12.662-11.354-21.616-11.354c-13.146,0-32.71,18.787-36.51,22.551c-1.018,1.01-1.585,2.38-1.585,3.811
			c0,1.435,0.567,2.801,1.585,3.811c3.79,3.766,23.349,22.554,36.51,22.554c4.367,0,8.435-1.176,12.083-3.068l-6.577,45.163H103.992
			c-29.879,0-54.194,24.312-54.194,54.195v64.16l-32.505,17.502l-9.065-5.663c-2.515-1.571-5.837-0.805-7.413,1.706
			c-1.57,2.519-0.803,5.825,1.711,7.401l8.457,5.29l-3.04,13.039c-0.671,2.898,1.125,5.786,4.021,6.458
			c0.409,0.104,0.819,0.136,1.229,0.136c2.446,0,4.651-1.68,5.229-4.147l3.354-14.429l28.017-15.093v107.183
			c0,2.971,2.409,5.375,5.375,5.375h24.41c0.005,0,0.005,0,0.01,0c0.636,0,1.25-0.147,1.837-0.366c0.153-0.06,0.3-0.116,0.441-0.179
			c0.546-0.263,1.061-0.574,1.496-1.008c0.005-0.006,0.016-0.011,0.021-0.016c0.347-0.343,0.651-0.74,0.898-1.192l18.257-32.924
			l20.299,33.122c0.194,0.311,0.436,0.573,0.677,0.83c0.052,0.062,0.099,0.126,0.157,0.185c0.441,0.435,0.956,0.761,1.501,1.013
			c0.126,0.058,0.257,0.109,0.394,0.146c0.598,0.221,1.212,0.368,1.853,0.368c0.005,0,0.005,0,0.011,0h23.922
			c2.966,0,5.375-2.41,5.375-5.376v-48.32h40.505v48.32c0,2.966,2.409,5.376,5.375,5.376h28.798c0.783,0,1.506-0.185,2.173-0.483
			c0.168-0.072,0.304-0.215,0.468-0.314c0.499-0.285,0.95-0.6,1.322-1.018c0.058-0.064,0.137-0.085,0.184-0.153l33.648-41.077
			l39.749,43.729c0.031,0.036,0.08,0.047,0.105,0.073c0.419,0.441,0.928,0.776,1.47,1.055c0.109,0.057,0.178,0.143,0.294,0.194
			c0.646,0.278,1.358,0.436,2.114,0.436h22.951c2.972,0,5.376-2.404,5.376-5.375v-76.116c1.117,0.042,2.205,0.162,3.339,0.162
			c54.247,0,98.38-44.127,98.38-98.371c0-0.145-0.08-0.263-0.091-0.405c-0.011-0.118,0.047-0.247,0.021-0.37l-15.989-109.975
			c3.517,1.735,7.423,2.806,11.596,2.806c13.14,0,32.71-18.793,36.5-22.554c1.013-1.01,1.586-2.376,1.586-3.811
			c0-1.431-0.568-2.801-1.586-3.812C471.236,92.175,451.666,73.393,438.526,73.393z M394.961,73.614
			c3.548,0,6.609,2.065,8.074,5.047c-0.925-0.215-1.984-0.402-2.971-0.606c-0.987-0.2-1.927-0.409-2.977-0.601
			c-1.46-0.27-3.024-0.522-4.578-0.769c-1.019-0.158-1.994-0.333-3.051-0.485c-0.221-0.032-0.414-0.069-0.629-0.1
			C390.436,74.55,392.615,73.614,394.961,73.614z M295.505,73.614c2.379,0,4.589,0.969,6.206,2.548
			c-0.21,0.032-0.39,0.071-0.6,0.098c-1.244,0.179-2.382,0.38-3.579,0.575c-1.396,0.231-2.819,0.457-4.142,0.703
			c-1.108,0.209-2.127,0.44-3.16,0.661c-0.945,0.2-1.969,0.389-2.847,0.599C288.797,75.737,291.916,73.614,295.505,73.614z
			 M250.225,115.375c-5.492,0-16.667-8.202-24.877-15.619c8.215-7.413,19.385-15.612,24.877-15.612
			c8.409,0,15.233,6.688,15.559,15.032l-0.782,5.449C262.929,110.845,257.123,115.375,250.225,115.375z M431.95,239.447
			c-2.799,45.808-40.847,82.255-87.355,82.255c-46.505,0-84.553-36.442-87.357-82.255 M431.392,228.7H257.816l7.611-52.355
			c0.493-0.811,0.86-1.716,0.86-2.748c0-0.478-0.156-0.903-0.273-1.339l9.539-65.579c0.598-2.22,1.028-4.512,1.028-6.913
			c0-0.045-0.011-0.087-0.011-0.123l0.82-5.651c0.524-0.447,2.062-1.542,5.947-2.88c6.267-2.152,15.563-3.942,26.896-5.173
			c21.229-2.325,48.643-2.344,69.992-0.063c11.296,1.216,20.608,2.972,26.981,5.09c2.898,0.963,4.566,1.806,5.496,2.394
			c-0.504,0.981-0.699,2.105-0.546,3.224l0.179,1.233c-0.047,0.653-0.199,1.273-0.199,1.94c0,3.407,0.703,6.632,1.89,9.622
			 M438.526,115.375c-6.199,0-11.538-3.664-14.053-8.916l-1.322-9.103c0.011-0.078,0.011-0.155,0.021-0.231
			c0.725-1.32,0.961-2.524,1.018-3.53c2.395-5.549,7.916-9.443,14.336-9.443c5.486,0,16.656,8.197,24.878,15.609
			C455.182,107.167,444.001,115.375,438.526,115.375z"/>
		<path d="M295.412,179.941c-7.009,0-12.693,5.703-12.693,12.695c0,6.995,5.707,12.693,12.693,12.693
			c7.004,0,12.693-5.704,12.693-12.693C308.105,185.639,302.416,179.941,295.412,179.941z M295.412,194.589
			c-1.07,0-1.942-0.876-1.942-1.948c0-1.068,0.872-1.945,1.942-1.945s1.942,0.876,1.942,1.945
			C297.354,193.712,296.487,194.589,295.412,194.589z"/>
		<path d="M391.051,179.941c-7.009,0-12.699,5.703-12.699,12.695c0,6.995,5.711,12.693,12.699,12.693
			c6.996,0,12.693-5.704,12.693-12.693C403.745,185.639,398.058,179.941,391.051,179.941z M391.051,194.589
			c-1.076,0-1.948-0.876-1.948-1.948c0-1.068,0.883-1.945,1.948-1.945c1.069,0,1.942,0.876,1.942,1.945
			C392.994,193.712,392.126,194.589,391.051,194.589z"/>
	</g>
</g>
<g>
</g>
<g>
</g>
<g>
</g>
<g>
</g>
<g>
</g>
<g>
</g>
<g>
</g>
<g>
</g>
<g>
</g>
<g>
</g>
<g>
</g>
<g>
</g>
<g>
</g>
<g>
</g>
<g>
</g>
</svg>
