<svg xmlns="http://www.w3.org/2000/svg" width="476.601" height="476.601"><path d="M438.526 73.393c-8.524 0-16.047 4.134-20.866 10.428a30.072 30.072 0 00-2.997-1.525c-.162-10.74-8.924-19.439-19.706-19.439-7.938 0-14.898 4.888-17.974 11.924-19.887-1.79-43.675-1.774-63.492.048-3.051-7.063-10.031-11.972-17.996-11.972-10.86 0-19.695 8.827-19.727 19.675-1.285.585-2.646 1.312-3.932 2.21-4.772-6.843-12.662-11.354-21.616-11.354-13.146 0-32.71 18.787-36.51 22.551a5.361 5.361 0 00-1.585 3.811c0 1.435.567 2.801 1.585 3.811 3.79 3.766 23.349 22.554 36.51 22.554 4.367 0 8.435-1.176 12.083-3.068l-6.577 45.163H103.992c-29.879 0-54.194 24.312-54.194 54.195v64.16l-32.505 17.502-9.065-5.663a5.39 5.39 0 00-7.413 1.706 5.375 5.375 0 001.711 7.401l8.457 5.29-3.04 13.039a5.377 5.377 0 004.021 6.458c.409.104.819.136 1.229.136a5.379 5.379 0 005.229-4.147l3.354-14.429 28.017-15.093v107.183a5.375 5.375 0 005.375 5.375h24.42c.636 0 1.25-.147 1.837-.366.153-.06.3-.116.441-.179.546-.263 1.061-.574 1.496-1.008.005-.006.016-.011.021-.016a5.13 5.13 0 00.898-1.192l18.257-32.924 20.299 33.122c.194.311.436.573.677.83.052.062.099.126.157.185.441.435.956.761 1.501 1.013.126.058.257.109.394.146.598.221 1.212.368 1.853.368h23.933a5.38 5.38 0 005.375-5.376v-48.32h40.505v48.32a5.38 5.38 0 005.375 5.376h28.798c.783 0 1.506-.185 2.173-.483.168-.072.304-.215.468-.314.499-.285.95-.6 1.322-1.018.058-.064.137-.085.184-.153l33.648-41.077 39.749 43.729c.031.036.08.047.105.073.419.441.928.776 1.47 1.055.109.057.178.143.294.194a5.327 5.327 0 002.114.436h22.951a5.372 5.372 0 005.376-5.375v-76.116c1.117.042 2.205.162 3.339.162 54.247 0 98.38-44.127 98.38-98.371 0-.145-.08-.263-.091-.405-.011-.118.047-.247.021-.37l-15.989-109.975c3.517 1.735 7.423 2.806 11.596 2.806 13.14 0 32.71-18.793 36.5-22.554a5.376 5.376 0 000-7.623c-3.779-3.748-23.349-22.53-36.489-22.53zm-43.565.221c3.548 0 6.609 2.065 8.074 5.047-.925-.215-1.984-.402-2.971-.606-.987-.2-1.927-.409-2.977-.601-1.46-.27-3.024-.522-4.578-.769-1.019-.158-1.994-.333-3.051-.485-.221-.032-.414-.069-.629-.1a8.834 8.834 0 016.132-2.486zm-99.456 0a8.9 8.9 0 016.206 2.548c-.21.032-.39.071-.6.098-1.244.179-2.382.38-3.579.575-1.396.231-2.819.457-4.142.703-1.108.209-2.127.44-3.16.661-.945.2-1.969.389-2.847.599a8.953 8.953 0 018.122-5.184zm-45.28 41.761c-5.492 0-16.667-8.202-24.877-15.619 8.215-7.413 19.385-15.612 24.877-15.612 8.409 0 15.233 6.688 15.559 15.032l-.782 5.449c-2.073 6.22-7.879 10.75-14.777 10.75zM431.95 239.447c-2.799 45.808-40.847 82.255-87.355 82.255-46.505 0-84.553-36.442-87.357-82.255M431.392 228.7H257.816l7.611-52.355c.493-.811.86-1.716.86-2.748 0-.478-.156-.903-.273-1.339l9.539-65.579c.598-2.22 1.028-4.512 1.028-6.913 0-.045-.011-.087-.011-.123l.82-5.651c.524-.447 2.062-1.542 5.947-2.88 6.267-2.152 15.563-3.942 26.896-5.173 21.229-2.325 48.643-2.344 69.992-.063 11.296 1.216 20.608 2.972 26.981 5.09 2.898.963 4.566 1.806 5.496 2.394a5.439 5.439 0 00-.546 3.224l.179 1.233c-.047.653-.199 1.273-.199 1.94 0 3.407.703 6.632 1.89 9.622m24.5 5.996c-6.199 0-11.538-3.664-14.053-8.916l-1.322-9.103c.011-.078.011-.155.021-.231a8.135 8.135 0 001.018-3.53c2.395-5.549 7.916-9.443 14.336-9.443 5.486 0 16.656 8.197 24.878 15.609-8.222 7.406-19.403 15.614-24.878 15.614z"/><path d="M295.412 179.941c-7.009 0-12.693 5.703-12.693 12.695 0 6.995 5.707 12.693 12.693 12.693 7.004 0 12.693-5.704 12.693-12.693 0-6.997-5.689-12.695-12.693-12.695zm0 14.648a1.95 1.95 0 01-1.942-1.948c0-1.068.872-1.945 1.942-1.945s1.942.876 1.942 1.945a1.947 1.947 0 01-1.942 1.948zm95.639-14.648c-7.009 0-12.699 5.703-12.699 12.695 0 6.995 5.711 12.693 12.699 12.693 6.996 0 12.693-5.704 12.693-12.693.001-6.997-5.686-12.695-12.693-12.695zm0 14.648a1.95 1.95 0 01-1.948-1.948c0-1.068.883-1.945 1.948-1.945a1.946 1.946 0 010 3.893z"/></svg>